<svg id="Layer_1" data-name="Layer 1" xmlns="http://www.w3.org/2000/svg" viewBox="0 0 511.79 511.9">
    <defs>
        <style>.cls-1{fill:#fff;}</style>
    </defs>
    <title>ios7-cloud-outline</title>
    <path fill="inherit"
          d="M2144.64,1176.08c11,2.94,21.91,4.46,31.63,8.69,51,22.19,65.85,90.06,26.09,133.39-16.78,18.28-37.74,27-62.71,26.91-91-.19-182-.06-273-.08-53.32,0-96.23-49.25-88.95-102.11,4.79-34.79,24.21-58.26,56.17-71.77,2.84-1.2,3.87-2.83,4.64-5.61,6.89-24.87,22.34-41.28,47.94-46.85,10.77-2.34,21.52-1,31.82,3.2l4.91,2c15.44-30.32,38.76-51.49,71.24-61.75,22.72-7.17,45.61-6.83,68.31.41C2106,1076.26,2144.9,1117.75,2144.64,1176.08Zm-214.27-31.72c-4.62-2.27-9.06-4.5-13.54-6.65-8.14-3.91-16.66-5.72-25.68-4.18-19.77,3.38-34.75,18.78-37.92,39.86-.89,5.9-3.13,8.72-8.82,10.54-17.94,5.74-32.14,16.64-41.6,33.11-28.29,49.25,8.61,111.88,66,111.93q133.71.13,267.42,0a94.14,94.14,0,0,0,16.9-1.42c36.15-6.66,60.21-40.53,55-77.15-4.59-32.5-30.8-56.17-63.69-57.42-5.26-.2-10.54,0-16.33,0,3.78-59.32-18.5-103-77.82-116.89C1992.21,1062.47,1953.88,1092.19,1930.37,1144.36Z"
          transform="translate(-1745.04 -945.1)"/>
    <path fill="currentColor"
          d="M1930.37,1144.36c23.51-52.17,61.84-81.89,119.95-68.33,59.32,13.84,81.6,57.57,77.82,116.89,5.79,0,11.07-.17,16.33,0,32.89,1.25,59.1,24.92,63.69,57.42,5.17,36.62-18.89,70.48-55,77.15a94.14,94.14,0,0,1-16.9,1.42q-133.71.13-267.42,0c-57.37-.05-94.28-62.69-66-111.93,9.46-16.46,23.66-27.37,41.6-33.11,5.7-1.82,7.94-4.64,8.82-10.54,3.17-21.09,18.15-36.48,37.92-39.86,9-1.54,17.54.26,25.68,4.18C1921.31,1139.86,1925.75,1142.09,1930.37,1144.36Z"
          transform="translate(-1745.04 -945.1)"/>
</svg>