<?xml version="1.0" encoding="UTF-8"?>
<svg xmlns="http://www.w3.org/2000/svg" id="Layer_1" data-name="Layer 1" viewBox="0 0 511.81 511.9">
   <defs>
      <style>.cls-1{fill:#fff;}</style>
   </defs>
   <title>cube</title>
   <path fill="inherit" d="M2000.88,1186.1c-5.56-1.9-11-3-15.78-5.51q-90.16-47.3-180.13-94.95a19.1,19.1,0,0,1-1.73-1c-4.38-2.93-8.67-6.1-8.33-12.09.33-5.76,5-7.81,9.47-9.81,58.24-26.2,116.67-52,174.64-78.82,15.39-7.12,28.72-7.06,44.09.06,57.35,26.56,115.16,52.12,172.81,78,4.93,2.22,10.31,4.26,10.57,10.66.27,6.75-4.47,10.32-9.87,13.17q-76.81,40.5-153.61,81c-8.68,4.58-17.22,9.46-26.07,13.67C2011.94,1182.93,2006.42,1184.23,2000.88,1186.1Z" transform="translate(-1745.03 -945.1)" />
   <path fill="currentColor" d="M1985,1320.06q0,45.24,0,90.48c0,12.23-9.51,18-20.37,12.24q-86-45.55-172-91.18c-10.54-5.58-15.78-14-15.75-26.16.17-59.15.37-118.3-.15-177.45-.11-12.87,11.51-17.58,21.14-12.51,57.12,30.05,114.5,59.6,171.82,89.28,10.12,5.24,15.33,13.3,15.29,24.83C1984.95,1259.74,1985,1289.9,1985,1320.06Z" transform="translate(-1745.03 -945.1)" />
   <path fill="currentColor" d="M2017,1319.8c0-30,.08-60,0-90,0-11.75,5.22-19.86,15.52-25.19,57.17-29.59,114.41-59.08,171.38-89.06,10.14-5.34,21.5-.24,21.38,12.69-.55,59.15-.31,118.3-.19,177.45,0,11.71-4.89,20-15.15,25.46Q2123.49,1377,2037.14,1423c-9.9,5.29-20.58-1.11-20.35-12.18C2017.41,1380.46,2017,1350.12,2017,1319.8Z" transform="translate(-1745.03 -945.1)" />
</svg>