<svg data-name="Layer 1" id="Layer_1" viewBox="0 0 511.8 511.9" xmlns="http://www.w3.org/2000/svg">
	<defs>
		<style>.cls-1{fill:#fff;}</style>
	</defs>
	<title>home</title>
	<path fill="currentColor" d="M1841,1392.64c0-2,0-3.65,0-5.3q0-98.73-.05-197.45c0-3.2.63-5.51,3.34-7.66q77.55-61.82,154.95-123.83c.5-.4,1.08-.72,1.91-1.26l42.09,33.64q56.58,45.24,113.2,90.44c3.25,2.59,4.69,5.19,4.68,9.54q-.26,98-.12,196v5.88H2049.15v-127.3h-96v127.35Z" transform="translate(-1745.04 -945.1)"/>
	<path fill="inherit" d="M2193,1183.1l-192-153.59-192,153.55c0-7.15-.11-13.35.11-19.54,0-1,1.41-2.1,2.39-2.89,8.68-7,17.35-14,26.16-20.88a8,8,0,0,0,3.37-7.15c-.13-28.49-.08-57-.08-85.47v-5.78h63.9v44.51L2001,1009c12.07,9.63,24,19.16,36,28.71q76.45,61.18,152.95,122.31c2.34,1.87,3.31,3.71,3.18,6.66C2192.83,1171.79,2193,1176.89,2193,1183.1Z" transform="translate(-1745.04 -945.1)"/>
</svg>