<?xml version="1.0" encoding="UTF-8" standalone="no"?>
<svg width="16px" height="10px" viewBox="0 0 16 10" version="1.1" xmlns="http://www.w3.org/2000/svg" xmlns:xlink="http://www.w3.org/1999/xlink">
    <!-- Generator: Sketch 40.1 (33804) - http://www.bohemiancoding.com/sketch -->
    <title>Envelope</title>
    <desc>Created with Sketch.</desc>
    <defs></defs>
    <g id="Page-1" stroke="none" stroke-width="1" fill="none" fill-rule="evenodd">
        <g id="01_Login" transform="translate(-541.000000, -318.000000)" fill="#EA6A2A">
            <g id="Group" transform="translate(479.000000, 169.000000)">
                <g id="email-field" transform="translate(62.000000, 143.000000)">
                    <path d="M13.672644,14.3812916 L13.6726442,7.60223157 L1.40232245,7.60223157 L1.40232245,14.3812916 L13.672644,14.3812916 L13.672644,14.3812916 Z M0,6.92135781 C0,6.54859971 0.314862099,6.24641957 0.701862246,6.24641957 L14.3731042,6.24641957 C14.760732,6.24641957 15.0749665,6.55144254 15.0749665,6.92135781 L15.0749665,15.0621653 C15.0749665,15.4349234 14.7601044,15.7371036 14.3731042,15.7371036 L0.701862246,15.7371036 C0.314234431,15.7371036 0,15.4320806 0,15.0621653 L0,6.92135781 L0,6.92135781 Z M2.84927963,7.60142097 L7.54570022,11.3631795 L12.2471257,7.59741179 L2.84927963,7.60142097 L2.84927963,7.60142097 Z M9.29308927,11.1742509 L8.70822948,11.6264378 C8.32071964,11.9260427 8.09222697,12.1027028 8.09222697,12.1027028 C7.79038844,12.3360706 7.29950852,12.3349086 6.99704153,12.1010549 C6.99704153,12.1010549 6.80016229,11.9488369 6.42739345,11.660629 L5.78879492,11.1668938 L5.78879492,11.1668938 L5.47253189,11.5032448 L1.96672574,15.2317278 L1.61298668,15.6079351 L0.834760737,14.9239217 L1.1884998,14.5477144 L4.69430595,10.8192314 L4.96574625,10.5305501 L0.544407786,7.11217306 L14.5469921,7.11217306 L10.1161379,10.5379073 L10.3806605,10.8192314 L13.8864667,14.5477144 L14.2402057,14.9239217 L13.4619798,15.6079351 L13.1082407,15.2317278 L9.60243457,11.5032448 L9.29308927,11.1742509 L9.29308927,11.1742509 Z" id="Envelope"></path>
                </g>
            </g>
        </g>
    </g>
</svg>