<?xml version="1.0" encoding="UTF-8" standalone="no"?>
<svg width="11px" height="14px" viewBox="0 0 11 14" version="1.1" xmlns="http://www.w3.org/2000/svg" xmlns:xlink="http://www.w3.org/1999/xlink">
    <!-- Generator: Sketch 40.1 (33804) - http://www.bohemiancoding.com/sketch -->
    <title>Locked</title>
    <desc>Created with Sketch.</desc>
    <defs></defs>
    <g id="Page-1" stroke="none" stroke-width="1" fill="none" fill-rule="evenodd">
        <g id="01_Login" transform="translate(-541.000000, -377.000000)" fill="#EA6A2A">
            <g id="Group" transform="translate(479.000000, 169.000000)">
                <g id="password-field" transform="translate(62.000000, 208.000000)">
                    <path d="M1.30515325,11.9594652 L9.46268019,11.9594652 L9.46268019,7.22746922 L1.30515325,7.22746922 L1.30515325,11.9594652 Z M0,6.59680907 C0,6.24820393 0.293598,5.96560363 0.649327037,5.96560363 L10.1185061,5.96560363 C10.4771196,5.96560363 10.7678332,6.25003674 10.7678332,6.59680907 L10.7678332,12.5901254 C10.7678332,12.9387305 10.4742352,13.2213308 10.1185061,13.2213308 L0.649327037,13.2213308 C0.290713617,13.2213308 0,12.9368977 0,12.5901254 L0,6.59680907 L0,6.59680907 Z M9.13607295,5.96560363 L7.83091967,5.96560363 L7.83091967,4.1779607 C7.83091967,2.90445077 6.7395183,1.86454042 5.38375727,1.86454042 C4.02799625,1.86454042 2.93659488,2.90445077 2.93659488,4.1779607 L2.93659488,5.96560363 L1.6314416,5.96560363 L9.13607295,5.96560363 Z M1.6314416,4.1779607 C1.6314416,2.20338483 3.31141055,0.602674823 5.38375727,0.602674823 C7.45610399,0.602674823 9.13607295,2.20338483 9.13607295,4.1779607 L9.13607295,6.27976072 L1.6314416,6.27976072 L1.6314416,4.1779607 Z" id="Locked"></path>
                </g>
            </g>
        </g>
    </g>
</svg>